<?xml version="1.0" encoding="UTF-8" standalone="no"?>
<svg width="103px" height="59px" viewBox="0 0 103 59" version="1.1" xmlns="http://www.w3.org/2000/svg" xmlns:xlink="http://www.w3.org/1999/xlink" xmlns:sketch="http://www.bohemiancoding.com/sketch/ns">
    <!-- Generator: Sketch 3.3.2 (12043) - http://www.bohemiancoding.com/sketch -->
    <title>FINAL CAR</title>
    <desc>Created with Sketch.</desc>
    <defs></defs>
    <g id="Layouts" stroke="none" stroke-width="1" fill="none" fill-rule="evenodd" sketch:type="MSPage">
        <g id="#1-layout" sketch:type="MSArtboardGroup" transform="translate(-601.000000, -360.000000)">
            <g id="FINAL-CAR" sketch:type="MSLayerGroup" transform="translate(601.000000, 360.000000)">
                <g id="Oval-3-Copy-4-+-Oval-3-Copy-3" transform="translate(58.000000, 38.000000)" sketch:type="MSShapeGroup">
                    <path d="M10.956871,21 C16.7117686,21 21.3770349,16.341233 21.3770349,10.5943526 C21.3770349,4.84747217 16.7117686,0.18870512 10.956871,0.18870512 C5.20197342,0.18870512 0.536707147,4.84747217 0.536707147,10.5943526 C0.536707147,16.341233 5.20197342,21 10.956871,21 Z" id="Oval-3-Copy-4" fill="#4F5454"></path>
                    <ellipse id="Oval-3-Copy-3" fill="#D8D8D8" cx="10.956871" cy="10.7473768" rx="7.5086475" ry="7.49818713"></ellipse>
                </g>
                <g id="Oval-3-Copy-4-+-Oval-3-Copy-3-Copy" transform="translate(15.000000, 38.000000)" sketch:type="MSShapeGroup">
                    <path d="M10.956871,21 C16.7117686,21 21.3770349,16.341233 21.3770349,10.5943526 C21.3770349,4.84747217 16.7117686,0.18870512 10.956871,0.18870512 C5.20197342,0.18870512 0.536707147,4.84747217 0.536707147,10.5943526 C0.536707147,16.341233 5.20197342,21 10.956871,21 Z" id="Oval-3-Copy-4" fill="#4F5454"></path>
                    <ellipse id="Oval-3-Copy-3" fill="#D8D8D8" cx="10.956871" cy="10.7473768" rx="7.5086475" ry="7.49818713"></ellipse>
                </g>
                <path d="M2,47.9999997 L13.0000001,47.9999997 C13.0000001,47.9999997 13.6523928,35.8347632 25.9999996,35.8347626 C38.3476065,35.8347619 38.9999982,47.9999997 38.9999982,47.9999997 L55.9999982,47.9999997 C55.9999982,47.9999997 56.748165,35.8347626 68.9999983,35.8347626 C81.2518316,35.8347626 82.0000016,49 82.0000016,49 C82.0000016,49 91.9999996,49 97.9999982,48.9999993 C103.999997,48.9999986 104.239796,29.8913996 97.9999981,28.9999997 C90.9999981,27.9999995 86.9999982,28 82.9999982,23 C77.4711736,16.0889692 70.9999983,5.00000009 59.9999982,2.00000004 C48.9999982,-0.999999987 33.9999982,-4.7469223e-10 27.9999996,2.00000001 C22.000001,4.00000002 12.3391309,7.99391681 8.19333267,17.6738947 C4.04753447,27.3538725 -2.00000015,47.9999997 2,47.9999997 Z" id="Path-3" fill="#4F5454" sketch:type="MSShapeGroup"></path>
                <path d="M12,23 C16,22.9999998 46,23 46,23 C46,23 71.0000029,22.9999998 74.9999966,22.9999998 C79.9999921,22.9999998 70.0000004,10.0000001 60.0000004,6.00000029 C52.332828,2.93313146 32.0000005,2.99999995 24.0000004,7.00000004 C16.0000004,11.0000001 7.99999991,23.0000002 12,23 Z" id="Path-3-Copy" fill="#D8D8D8" sketch:type="MSShapeGroup"></path>
                <rect id="Rectangle-235" fill="#4F5454" sketch:type="MSShapeGroup" x="57" y="4" width="2" height="19"></rect>
                <rect id="Rectangle-235-Copy" fill="#4F5454" sketch:type="MSShapeGroup" x="33" y="4" width="2" height="19"></rect>
            </g>
        </g>
    </g>
</svg>