<?xml version="1.0" encoding="UTF-8" standalone="no"?>
<svg width="143px" height="123px" viewBox="0 0 143 123" version="1.1" xmlns="http://www.w3.org/2000/svg" xmlns:xlink="http://www.w3.org/1999/xlink" xmlns:sketch="http://www.bohemiancoding.com/sketch/ns">
    <!-- Generator: Sketch 3.3.2 (12043) - http://www.bohemiancoding.com/sketch -->
    <title>house</title>
    <desc>Created with Sketch.</desc>
    <defs></defs>
    <g id="Layouts" stroke="none" stroke-width="1" fill="none" fill-rule="evenodd" sketch:type="MSPage">
        <g id="#1-layout" sketch:type="MSArtboardGroup" transform="translate(-440.000000, -2216.000000)" stroke="#FFFFFF">
            <g id="house" sketch:type="MSLayerGroup" transform="translate(440.000000, 2219.000000)">
                <path d="M48.3622687,81.3856174 L99.5507748,81.3856163 L99.5507748,43.1222077 L74.2744251,17.9301125 L48.3622687,43.1222088 L48.3622687,81.3856174 Z" stroke-width="10" sketch:type="MSShapeGroup"></path>
                <path d="M117.436662,57.5 L142.871444,57.5" id="Line-Copy" stroke-width="7" stroke-linejoin="round" fill="#FFFFFF" sketch:type="MSShapeGroup"></path>
                <path d="M108.444108,17.94 L126.429215,0.0148430969" id="Line-Copy-2" stroke-width="7" stroke-linejoin="round" sketch:type="MSShapeGroup"></path>
                <path d="M0.391304348,59.5 L28.9565217,59.5" id="Line-Copy-6" stroke-width="7" stroke-linejoin="round" fill="#FFFFFF" sketch:type="MSShapeGroup" transform="translate(14.673913, 59.500000) scale(-1, 1) translate(-14.673913, -59.500000) "></path>
                <path d="M24.1181497,17.94 L42.1032569,0.0148430969" id="Line-Copy-4" stroke-width="7" stroke-linejoin="round" sketch:type="MSShapeGroup" transform="translate(33.110703, 8.977422) scale(-1, 1) translate(-33.110703, -8.977422) "></path>
                <path d="M107.518252,117 L125.503359,99.0748431" id="Line-Copy-8" stroke-width="7" stroke-linejoin="round" sketch:type="MSShapeGroup" transform="translate(116.510805, 108.037422) scale(1, -1) translate(-116.510805, -108.037422) "></path>
                <path d="M23.1922933,117 L41.1774006,99.0748431" id="Line-Copy-7" stroke-width="7" stroke-linejoin="round" sketch:type="MSShapeGroup" transform="translate(32.184847, 108.037422) scale(-1, -1) translate(-32.184847, -108.037422) "></path>
            </g>
        </g>
    </g>
</svg>