<?xml version="1.0" encoding="UTF-8"?>
<!DOCTYPE svg PUBLIC "-//W3C//DTD SVG 1.1//EN" "http://www.w3.org/Graphics/SVG/1.1/DTD/svg11.dtd">
<!-- Creator: CorelDRAW -->
<svg xmlns="http://www.w3.org/2000/svg" xml:space="preserve" width="210mm" height="297mm" style="shape-rendering:geometricPrecision; text-rendering:geometricPrecision; image-rendering:optimizeQuality; fill-rule:evenodd; clip-rule:evenodd"
viewBox="0 0 210 297"
 xmlns:xlink="http://www.w3.org/1999/xlink">
 <defs>
 </defs>
 <g id="Plan_x0020_1">
  <path class="fil0 str0" d="M115.534 25.788c-0.1584,-0.1322 -0.2077,-0.3141 -0.3932,-0.4535 -0.3959,-0.2973 -0.6102,-0.8632 -1.001,-1.1459 -0.197,-0.1426 -1.1893,-1.3318 -0.9534,-1.5874 0.1735,-0.1881 2.2145,0.5979 2.4668,0.7758 0.9616,0.6784 2.0149,1.2463 2.5144,2.3275 0.2146,0.4647 0.1922,0.8289 -0.2979,1.0742 -0.5064,0.2536 -1.4511,-0.1989 -1.9305,-0.382l-0.4052 -0.6087zm55.6772 15.9452l-0.952 -2.5228 7.4256 -3.7604 1.19 -5.2836 -5.7596 -11.0908 -5.0932 -1.8088 -4.9028 2.2848 -1.4756 5.1408 8.6632 16.6124c0.046,0.2395 0.0924,0.3968 0.0924,0.6324 -1.3254,0.3313 -0.7146,0.9981 -0.858,2.2439 -0.1262,1.0956 -1.6102,0.7848 -1.001,2.0052 0.2273,0.4555 1.481,1.6913 1.9067,2.053 0.5968,0.5069 1.8721,0.6709 2.6217,0.931 0.8788,0.3048 1.1832,1.016 2.1927,1.0264l2.288 0.0239c1.3298,0.0138 1.9417,0.9693 2.5502,-0.8355 0.6509,-1.9302 1.0048,-2.8253 0.9057,-4.8937 -0.0796,-1.6604 -0.1525,-0.7619 0.9056,-1.9097 0.4625,-0.5018 0.0712,-1.4092 0.9296,-1.6233 0.1106,-0.4436 0.668,-0.5205 0.5005,-1.1936 -0.4431,0 -2.9914,0.8527 -3.1937,1.1459 -0.244,0.3539 -0.7223,0.5597 -1.1441,0.4058 -0.489,-0.1783 -3.1483,1.6254 -4.004,1.7904 -0.8965,0.1728 -1.1045,-0.5013 -1.6684,-0.5013 -0.5974,0 -1.6583,0.474 -2.0258,-0.2626l-0.0937 -0.6098zm-139.476 140.665c-0.3624,-1.4391 -0.7928,-3.7433 -0.6912,-5.204 -0.4892,-1.3086 -0.3928,-2.8622 -0.9057,-4.2014l-1.3346 -3.4853c-0.6921,-1.8074 -0.6015,-3.4023 -0.6435,-5.2517l-0.0954 -4.2014c0,-2.5147 -0.431,-4.5467 -0.6912,-6.9228 -0.2238,-2.0431 -0.8168,-4.0781 -0.9056,-6.1111 -0.0424,-0.971 -0.4652,-2.2954 -0.286,-3.2227 0,-2.132 -0.777,-4.2775 -0.8581,-6.326 -0.0683,-1.7231 0.4831,-3.5881 -0.4766,-5.1562l-0.9057 -8.2835 -1.9067 -12.6997 -0.8818 -12.3177c-0.3194,-1.8102 -0.446,-3.8897 -0.2384,-5.7054 0.136,-1.1891 0.4268,-2.5883 -0.4767,-3.5568 -0.9653,-1.0346 -0.8442,-1.0655 -0.4051,-2.3872 0.2987,-0.8993 -0.6183,-2.231 -0.0477,-2.4826 0.8522,-0.3757 1.1118,-0.1893 0.7865,-1.1697 -0.0616,-0.1855 0.926,-1.1409 1.1202,-1.5517 0.531,0.0858 3.796,-2.5134 4.4092,-3.1749 0.8814,-0.9506 1.4199,-2.7773 2.7886,-2.8407l6.6972 -0.3104c0.4404,-0.0204 1.104,0.091 1.3824,0.4775 1.3649,1.8941 2.1074,0.0955 3.5512,0.0955 0.4131,1.6524 4.5587,-1.539 5.0527,-1.6711 1.5567,-0.716 2.7278,-0.9841 3.9088,-2.3632 1.287,-1.5031 2.6122,-4.4385 3.0983,-6.326 0.283,-1.0986 0.4728,-2.0261 1.1679,-2.9124 0.7024,-0.8954 0.3534,-2.2646 1.1202,-3.1271 0.9813,-1.2641 0.8645,-2.3392 1.2393,-3.7956 0.243,-0.9441 0.8564,-1.7735 1.0964,-2.793 0.3924,-1.6662 -0.1854,-7.0683 2.0973,-7.6389 0,2.5448 3.1617,2.2289 4.8144,2.602 1.7683,0.3991 1.944,2.2034 3.2414,2.602 2.0054,0.616 3.6052,2.6932 5.4102,2.9839 2.2506,0.3626 6.896,-1.3764 9.2237,-1.9574 1.4899,-0.2223 3.3167,0.1716 4.6952,-0.2626 2.3123,-0.7285 4.4574,-1.6428 6.8879,-1.9814 0.7449,-0.1038 1.5502,-0.1245 2.2404,-0.4296 0.2645,-0.117 1.9067,-0.4552 1.9067,-0.191 -2.3892,0.5973 -4.8378,1.7793 -7.1739,2.3633 0,1.9841 6.6472,-0.7169 7.8174,-0.8117 0.9865,-0.08 2.9257,-0.4267 3.7896,-0.0716 0.267,0.1098 0.2058,0.4294 0.4766,0.5491 0.3991,0.1765 0.8029,-0.0849 1.2632,0.1671 0.5235,0.2865 0.1422,0.6188 0.3575,1.0503l0.143 0.3462 1.5492 -0.1791 -0.5124 -3.6881 0.4052 -0.0597 0.2502 1.7903 0.4767 -0.1074 -0.2503 -2.0291 0.5959 -0.0358 0.2026 1.9098 0.6315 -0.1194 -0.1906 -2.0888 0.6196 -0.0477 0.1907 1.8142 0.9176 -0.4416 1.2513 -0.179 0.429 0.1074c0.5181,0.2969 0.3909,-0.4211 0.4229,-0.752 0.0864,-0.8945 0.1302,-1.286 0.7031,-2.0231 0.2415,-0.3106 0.6154,-0.5311 1.001,-0.6027 0.209,-0.0387 0.9923,-0.1099 1.132,0.0775l-0.0059 0.018c-0.3677,0.1823 -0.7878,0.2031 -1.15,0.4296 -1.4744,0.9217 -1.4813,1.8972 -1.2095,3.533 0.2731,0.2262 0.35,0.6039 0.7032,0.7281 0.6004,0.2113 1.1071,0.8818 1.8114,0.4775 0.5491,-0.3151 0.9134,-0.8118 1.573,-1.0146 0.7994,-0.2457 1.2059,-0.5674 1.3347,-1.4084 0.051,-0.3331 -0.1468,-0.2812 -0.3337,-0.4416 -0.3704,-0.3177 -0.7284,-0.5382 -0.9176,-1.0026l-0.3337 -0.4059 0.4529 -0.1909 2.2642 2.1365 2.2999 -0.0358 -0.0953 -0.5013 -1.7995 0.0119 -0.0357 -0.2745 1.9901 -0.1074 0.4886 0.37 0.0834 0.8355 1.0367 -0.012 0.0358 -0.6684 -0.858 -0.1432 -3.4678 -3.2107 0.3456 -0.0716 0.7269 0.4774 0.3814 -0.0597 -0.2503 -0.4655 0.4528 -0.1671 3.6942 3.0198 0.8342 -0.0239 -0.0953 -0.2387 -0.6316 -0.3223 0.0357 -0.0955 0.87 0.2745 2.0854 0.573 0.7746 -0.1313 1.3943 0.5251 -0.1192 -1.2174 -0.7389 -1.7784 1.2632 -0.3939 0.0954 2.2917 1.0606 1.1577 0.0715 0.5491 2.2761 0.8474 -0.1073 -2.9839 0.6078 0.0358 0.4409 3.7001 0.572 0.2268c0,-0.8869 0.9101,-2.3981 0.9533,-2.4946l0.4886 0.2984 -0.7984 2.3633 0.8103 0.3819 1.2751 -1.8142 0.4886 0.2506 -1.1797 1.9336 0.9295 0.4297 1.5968 -1.8142 0.5124 0.1671 -0.3694 4.8936 0.2264 0.2746 2.2285 -1.504 0.286 0.4178 -2.0616 1.48 0.3813 0.4536 2.0974 -1.3607 0.3336 0.5013 -2.1212 1.4204 0.4291 0.5132 2.0973 -1.4561 1.001 1.3845 -2.1569 1.7307 0.3932 0.4774 2.157 -1.5994 0.2979 0.4178 -2.288 1.8381 1.8113 2.5065 0.4886 0 1.7399 -1.3726 0.3336 0.37 -1.859 1.492 0.4171 0.4894 1.7637 -1.3965 0.2741 0.2626 -1.4896 1.6232 1.4657 1.6949 1.156 -0.8952 0.5005 0.4894 -0.715 1.2891 0.4885 0.3938 -0.0953 0.8594 1.5015 1.9336 1.144 2.1723 1.4539 1.8501 2.7408 -0.2626 0.0835 0.7281 -2.3715 0.2268 0.0834 0.919 2.0736 -0.2387 0.0357 0.3223 -2.1688 0.6445 0.0238 0.6207 2.9911 -0.0955 -0.0596 2.1126 -3.1698 0.0597 0.0238 0.9549 2.0973 0.0238 -0.0476 0.4536 -2.2285 0.0358 0.0119 0.8713 1.8352 0.0119 0.0954 0.4297 -1.9186 0.1194 0.0119 0.7878 2.9196 -0.0359 0.0477 0.6565 -3.0269 -0.0477 0.0477 0.7161 2.0735 -0.0477 0.0119 0.4058 -2.2046 0.0358 0.2383 4.1537 -2.7287 2.0052 -7.7936 7.4957 0.286 0.5967 7.8889 -7.5434 2.2642 -0.3581 0.6912 0.9549 2.0735 -0.1671 0.0239 1.1458 -2.1689 0.3342 0.2384 0.9788 5.005 -0.1194 0.4767 3.2227 -0.3098 0.0239 -2.8601 -1.8143 -2.3118 0.3342 0.9295 3.1511 2.7647 1.2652 -0.1907 0.5013 -2.2165 -0.9071 0.0953 0.74 0.715 1.289 -0.5958 0.2626 -0.429 2.244 -0.572 1.289 0.0476 1.1459 -0.5958 1.2413 1.1917 0.9071 1.1202 1.48 0.2383 0 -0.0238 -2.3871 0.2621 0 0.143 2.22 0.7389 0 -0.0477 -2.3155 0.3813 0 0.0715 2.053 0.6436 0 -0.1192 -2.8885 0.2622 0 0.0953 2.9362 0.4528 -0.0716 -0.0476 -3.1749 0.7865 0.0238 -0.1192 3.7479 -2.288 0 1.0487 1.0981 0.286 1.862 2.431 0.0716 -0.1192 -4.8937 0.3814 -0.0478 0.0238 5.1086 -2.0497 0.1671 0.0715 2.9839 -0.0715 1.4562 0.5243 0.6445 0.0715 0.74 -3.6465 0.2388 -0.0238 0.4774 1.3823 0.0239 0.1192 1.671 0.8103 -0.0716 0.5244 0.6445 1.3585 0.0239 0.2622 1.1458 4.004 -0.2626 0.572 4.4163 -11.1285 1.1319 -3.6652 0.3808 -1.5232 -0.7616 -1.666 -0.2856 -0.3808 1.0472 2.9512 1.3328 4.046 -0.3332 6.664 0 3.4272 -0.2856 1.904 0.3808 0.1428 0.6664 0.238 0.952 0.6664 0.8092 1.7136 -0.3808 5.0932 6.9972 -0.714 0.4284 -5.7596 0.1904 0.714 0.8568c0.3,0.0521 0.542,0.6063 0.8987,0.7782 0.9487,0.457 1.9289,0.3983 2.9554,0.2268 0.4325,-0.0723 2.0478,-0.2926 2.4071,-0.0239 0,0.1789 -0.8053,0.233 -0.9533,0.2745 -1.467,0.4114 -3.048,1.5158 -4.576,1.5158 -1.1838,0 -1.9942,-1.4919 -2.8957,-1.4919 -0.0277,0.0345 0.274,0.5998 0.274,0.8593 0,0.7659 -0.034,1.0681 -0.5958,1.5755 -0.1576,0.1424 -0.33,0.9016 -0.1788,1.0623 0.3785,0.4026 0.995,1.4567 0.4767,2.0052 -0.7988,0.8451 -0.8086,0.5458 0.0358,1.3129l1.5259 0.0716c0.8622,-0.9583 0.9295,-1.11 1.9067,-1.9813 1.1817,0.8875 2.62,2.5486 3.2413,3.1033l0.5005 -0.3581 1.3347 0.382 1.8114 -2.1246 0.143 0.1671 -1.3824 1.7904 0.1543 0.1193 0.9295 -1.0265 0.1311 0.012 -0.8938 1.098 0.2264 0.1552 0.8342 -1.0026 0.2503 0.0716 -0.7627 1.11 0.1549 0.0717 0.4886 -0.4297 1.4776 0.9548 0.858 -0.8832 0.2146 0.1193 -0.7746 1.0862 0.4647 0.3342 0.8699 -1.0742 0.2622 0.1432 -0.6912 1.2413 1.0368 0.8355 0.6912 -0.1432 0.5124 -0.191 1.1559 -0.0955 0.1787 0.3461 0.5601 0.0597 0.3099 0.4058 -3.718 1.0504 -0.1311 0.4058 0.7269 0.1432 3.6226 -1.2055 0 0.5132 -2.6693 0.8952 0 0.191 3.1579 -0.752 -0.4282 3.3064 -4.1947 1.4442 0.572 1.4681c1.184,0 0.3602,-0.1001 3.1818,-1.1339l0.0357 0.3581 -3.4916 1.2771 -3.73 -2.6856 -0.417 0.5849 2.9315 2.2917 -0.3575 0.3939 2.9438 2.0052 -0.1669 0.3103 -2.9077 -1.7665 -0.715 1.0265 4.5999 3.7956 -0.9057 1.0026 -2.8838 -2.1246 -0.5244 0.8594 1.2155 1.0026 -0.3336 0.7161 4.0994 3.0079 -0.0954 0.1671 -4.0517 -2.984 -1.2393 1.862 3.8133 2.6975 -0.1668 0.2864 -3.718 -2.7452 -0.3337 0.1432 -0.4052 0.191c-0.216,0.0191 -0.648,0.0439 -0.8583,-0.0119 -0.2635,-0.07 -0.2133,-0.4331 -0.4648,-0.5133 -1.0695,-0.3415 -1.1459,-1.2906 -1.9663,-1.6352 -0.6981,-0.2931 -1.5713,0.0568 -2.1807,-0.6326 -0.8294,-0.9385 -1.7789,-1.1383 -3.0031,-0.8593 -0.6102,0.1391 -1.1903,0.1905 -1.5611,-0.3462 -0.1348,-0.1952 0.0168,-0.4443 -0.0595,-0.6445 -0.095,-0.2496 -0.5685,-0.7004 -0.7508,-0.9071 -0.5086,-0.131 -0.502,-0.0306 -0.7746,-0.5013 -0.1913,-0.3305 -0.0149,-0.887 -0.2026,-1.122 -0.3914,-0.4902 -0.2322,-1.2376 -0.3456,-1.8859 -0.1421,-0.8118 -0.9964,-1.8892 -1.9186,-1.48 -1.231,0.5461 -1.2721,2.411 -2.7527,2.411l-1.442 -0.3103c-0.2707,-0.0583 -0.2649,0.6407 -0.3932,0.7997 -0.2416,0.2991 -0.6197,0.4175 -0.6197,0.8594 0,0.3619 -0.6019,0.6372 -0.5124,0.9071 0.1721,0.5185 1.0413,0.9094 1.3823,1.3368 0.2103,0.2637 0.5698,0.9631 0.858,1.0862 0.411,0.1754 1.8193,-0.2309 1.6803,0.6087 -0.0483,0.2923 0.016,0.6684 0.3813,0.6684 0.4951,0 0.6416,0.4345 1.0487,0.4655 0.0494,-0.0029 0.0941,-0.0069 0.143,0 0.4165,0.5364 1.6483,0.5583 2.0259,1.2294 0.4376,0.7775 -0.9329,2.1264 -1.3585,2.8049 -0.8319,1.3264 -1.7652,2.2193 -2.3834,3.724 0.1066,1.5009 1.0895,1.3343 1.3347,2.6258 0.1245,0.6562 1.1566,1.3097 1.7518,0.8355 0.2073,-0.1651 1.0664,-1.8235 1.3466,-1.1219 0.1112,0.2784 1.3057,0.8721 0.9414,1.1458 -0.8356,0.6276 -3.1607,0.349 -4.1232,0.191 -0.6648,-0.1092 -2.7556,-0.0745 -3.1937,-0.5132 -0.4899,-0.4904 -1.3419,-0.2294 -1.9663,-0.3223 -0.4467,-0.0665 -1.0063,-0.2678 -1.3943,-0.5013 -0.8826,-0.5314 -0.746,-0.6387 -1.6206,-0.3223 -0.9291,0.336 -0.5989,0.9527 -1.4062,1.313 -0.8297,0.1603 -1.0011,0.0819 -1.5373,-0.4775 -0.6989,-0.729 -0.6666,0.1304 -1.2155,-0.0597 -0.3255,-0.1128 -0.869,-0.5526 -1.2036,-0.4774 -0.5008,0.1125 -1.1946,1.4057 -1.6445,1.7546 -0.0432,0.0335 -0.0855,0.0678 -0.1263,0.1029m-115.181 0.3984l37.847 -0.3567 15.9969 -0.0782 61.3369 0.0365m-136.916 -171.999l190"/>
</g>
</svg>
